0
SECTION
2
HEADER
9
$INSUNITS
70
4
9
$ACADVER
1
AC1014
9
$HANDSEED
5
FFFF
0
ENDSEC
0
SECTION
2
TABLES
0
TABLE
2
VPORT
5
8
100
AcDbSymbolTable
0
ENDTAB
0
TABLE
2
LTYPE
5
5
100
AcDbSymbolTable
0
LTYPE
5
14
100
AcDbSymbolTableRecord
100
AcDbLinetypeTableRecord
2
BYBLOCK
70
0
0
LTYPE
5
15
100
AcDbSymbolTableRecord
100
AcDbLinetypeTableRecord
2
BYLAYER
70
0
0
ENDTAB
0
TABLE
2
LAYER
5
2
100
AcDbSymbolTable
70
2
0
LAYER
5
50
100
AcDbSymbolTableRecord
100
AcDbLayerTableRecord
2
0
70
0
6
CONTINUOUS
0
ENDTAB
0
TABLE
2
STYLE
5
3
100
AcDbSymbolTable
70
1
0
STYLE
5
11
100
AcDbSymbolTableRecord
100
AcDbTextStyleTableRecord
2
STANDARD
70
0
0
ENDTAB
0
TABLE
2
VIEW
5
6
100
AcDbSymbolTable
70
0
0
ENDTAB
0
TABLE
2
UCS
5
7
100
AcDbSymbolTable
70
0
0
ENDTAB
0
TABLE
2
APPID
5
9
100
AcDbSymbolTable
70
2
0
APPID
5
12
100
AcDbSymbolTableRecord
100
AcDbRegAppTableRecord
2
ACAD
70
0
0
ENDTAB
0
TABLE
2
DIMSTYLE
5
A
100
AcDbSymbolTable
70
1
0
ENDTAB
0
TABLE
2
BLOCK_RECORD
5
1
100
AcDbSymbolTable
70
1
0
BLOCK_RECORD
5
1F
100
AcDbSymbolTableRecord
100
AcDbBlockTableRecord
2
*MODEL_SPACE
0
BLOCK_RECORD
5
1B
100
AcDbSymbolTableRecord
100
AcDbBlockTableRecord
2
*PAPER_SPACE
0
ENDTAB
0
ENDSEC
0
SECTION
2
BLOCKS
0
BLOCK
5
20
100
AcDbEntity
100
AcDbBlockBegin
2
*MODEL_SPACE
0
ENDBLK
5
21
100
AcDbEntity
100
AcDbBlockEnd
0
BLOCK
5
1C
100
AcDbEntity
100
AcDbBlockBegin
2
*PAPER_SPACE
0
ENDBLK
5
1D
100
AcDbEntity
100
AcDbBlockEnd
0
ENDSEC
0
SECTION
2
ENTITIES
0
LWPOLYLINE
5
100
100
AcDbEntity
8
0
100
AcDbPolyline
90
4
70
1
43
0.0
10
-23.477629417661863
20
37.31707412702049
10
236.52237058233811
20
37.31707412702049
10
236.52237058233811
20
-182.6829258729795
10
-23.477629417661863
20
-182.6829258729795
0
LWPOLYLINE
5
101
100
AcDbEntity
8
0
100
AcDbPolyline
90
4
70
1
43
0.0
10
-8.7173368931301809
20
25.038896086675386
10
46.282663106869819
20
25.038896086675386
10
46.282663106869819
20
-59.961103913324614
10
-8.7173368931301809
20
-59.961103913324614
0
CIRCLE
5
102
100
AcDbEntity
8
0
100
AcDbCircle
10
157.91354094766913
20
-67.622328082092267
30
0
40
69.999999999999986
210
0
220
0
230
1
0
LWPOLYLINE
5
103
100
AcDbEntity
8
0
100
AcDbPolyline
90
4
70
1
43
0.0
10
80.145817449647041
20
29.583213816329259
10
130.14581744964704
20
29.583213816329259
10
130.14581744963814
20
17.583213816329256
10
80.145817449638145
20
17.583213816329256
0
LINE
5
104
100
AcDbEntity
8
0
100
AcDbLine
10
-23.477629417661863
20
-72.68292587297951
30
0
11
236.52237058233811
21
-72.68292587297951
31
0
0
LWPOLYLINE
5
105
100
AcDbEntity
8
0
100
AcDbPolyline
90
4
70
1
43
0.0
10
130.14581744963814
20
-162.9490655622883
10
80.145817449638145
20
-162.9490655622883
10
80.145817449647041
20
-174.94906556228827
10
130.14581744964704
20
-174.94906556228827
0
LWPOLYLINE
5
106
100
AcDbEntity
8
0
100
AcDbPolyline
90
12
70
1
43
0.0
10
-526.64231869868036
20
-23.286745939872624
10
-526.64231869868036
20
-11.286745939872622
10
-576.64231869868036
20
-11.286745939872622
10
-576.64231869868036
20
-23.286745939872624
10
-691.64231869868047
20
-23.286745939872624
10
-691.64231869868047
20
-153.28674593987262
10
-601.64231869868047
20
-153.28674593987262
10
-601.64231869868047
20
-63.286745939872624
10
-501.64231869868041
20
-63.286745939872624
10
-501.64231869868041
20
-153.28674593987262
10
-411.64231869868041
20
-153.28674593987262
10
-411.64231869868041
20
-23.286745939872624
0
LWPOLYLINE
5
107
100
AcDbEntity
8
0
100
AcDbPolyline
90
12
70
1
43
0.0
10
-501.64231869868041
20
96.713254060127284
10
-501.64231869868041
20
186.71325406012727
10
-601.64231869868047
20
186.71325406012744
10
-601.64231869868047
20
96.71325406012744
10
-691.64231869868047
20
96.71325406012744
10
-691.64231869868047
20
226.71325406012738
10
-576.64231869868036
20
226.71325406012738
10
-576.64231869868036
20
238.71325406012738
10
-526.64231869868036
20
238.71325406012738
10
-526.64231869868036
20
226.71325406012738
10
-411.64231869868041
20
226.71325406012733
10
-411.64231869868041
20
96.713254060127284
0
ENDSEC
0
SECTION
2
OBJECTS
0
DICTIONARY
5
C
100
AcDbDictionary
3
ACAD_GROUP
350
D
3
ACAD_MLINESTYLE
350
17
0
DICTIONARY
5
D
100
AcDbDictionary
0
DICTIONARY
5
1A
330
C
100
AcDbDictionary
0
DICTIONARY
5
17
100
AcDbDictionary
0
ENDSEC
0
EOF
